# xmcd
# 
# Track frame offsets:
#     150
#     30237
#     55071
#     77758
#     104953
#     135167
#     156966
#     186059
#     204312
#     226457
#     243250
#     260635
#     282820
# 
# Disc length: 4061
# 
# Revision: 1
# Processed by: cddbd v1.5.2PL0 Copyright (c) Steve Scherf et al.
# Submitted via: fre:ac v1.0.31
# 
DISCID=a90fdb0d
DTITLE=Versatile Music Releasers VMR - Baaghi  Yaara Dildara
DYEAR=0
DGENRE=Soundtrack
TTITLE0=Kaisa Lagta Hai
TTITLE1=Tap Tap Tapori
TTITLE2=Chandni Raat Hai
TTITLE3=Har Kasam Se Badi Hai
TTITLE4=Ek Chanchal Shokh Haseena
TTITLE5=Sajan O Sajan
TTITLE6=Bin Tere Sanam
TTITLE7=Hamare Papa Aur Hum
TTITLE8=Tum Hi Hamari Ho Manzil My Love
TTITLE9=Ab To Tumhe Hai Dikhana
TTITLE10=Le-Le-De-De Ka Police Mein Kya Kaam
TTITLE11=Koi Chahe Na Chahe
TTITLE12=Woh Jo Kaha Tha Maine
EXTD=
EXTT0=
EXTT1=
EXTT2=
EXTT3=
EXTT4=
EXTT5=
EXTT6=
EXTT7=
EXTT8=
EXTT9=
EXTT10=
EXTT11=
EXTT12=
PLAYORDER=
